<?xml version="1.0" standalone="yes"?>
<svg xmlns="http://www.w3.org/2000/svg" width="235" height="235">
<path style="fill:#fefefe; stroke:none;" d="M0 0L0 235L235 235L235 0L0 0z"/>
<path style="fill:#676766; stroke:none;" d="M8 12L8 36L11 36L10 33L11 32L14 33L14 30L17 31L21 30L21 29L19 29L19 28L47 28L46 56L47 56L47 54L48 54L47 59L49 58L48 61L60 67L62 65L72 67L75 65L75 62L77 63L78 62L78 61L76 62L76 61L80 57L80 56L77 55L81 30C80.2982 26.491 92.2304 28 97 28L142 28C146.482 28 156.833 26.6667 156 30C159.888 30 158.175 52.9408 157 57L165 64L166 67L183 67L182 65L185 66L189 57L188 29L190 29L190 56L191 56L190 28C195.916 28 219.149 26.4033 218 31L221 30L220 32C223.323 32.4226 224.294 33.8011 225 37L226 37L227 12L181 12L181 15C185.801 16.0832 184.008 22.0593 184 26C183.985 33.6375 188.037 58.4101 179 60L180 62L179 62L167 59L166 58L164 59C159.91 47.7783 162 33.8309 162 22L156 22L156 21L164 19L163 16L165 17L164 14L165 13L168 14L168 13L135 12L70 12L74 16L73 20L74 20L74 18L75 18C75 31.5787 77.8227 48.4754 72 61L72 58L71 58L70 62L66 61L66 62L68 62L68 63C64.0754 63 59.2203 64.1186 60 61C56.3338 60.6221 54.8747 59.6042 54 56L51 55L51 54C55.6575 49.9301 53.0027 34.9833 53 29C52.9989 26.5707 53.6237 22.784 51.9722 20.7423C50.054 18.3708 45.6833 19.0077 43 19L43 18L54 18L57 13C44.348 7.69102 21.7879 12 8 12z"/>
<path style="fill:#5f5f5d; stroke:none;" d="M53 17L59 13L53 17z"/>
<path style="fill:#676766; stroke:none;" d="M59 12L60 13L59 12z"/>
<path style="fill:#8d8d8c; stroke:none;" d="M60 12L60 13L66 13L60 12z"/>
<path style="fill:#676766; stroke:none;" d="M66.6667 12.3333L67.3333 12.6667L66.6667 12.3333z"/>
<path style="fill:#5f5f5d; stroke:none;" d="M68 12L71 14L68 12M167.667 12.3333L168.333 12.6667L167.667 12.3333z"/>
<path style="fill:#676766; stroke:none;" d="M169 12L170 13L169 12z"/>
<path style="fill:#8d8d8c; stroke:none;" d="M170 12L170 13L178 13L170 12z"/>
<path style="fill:#676766; stroke:none;" d="M178 12L179 13L178 12z"/>
<path style="fill:#5f5f5d; stroke:none;" d="M179 12L182 14L179 12z"/>
<path style="fill:#8d8d8c; stroke:none;" d="M57 13L56 15L57 13z"/>
<path style="fill:#c6c5c4; stroke:none;" d="M58.1049 13.858C52.5582 16.3523 53.002 22.9104 53 28C52.9962 37.9804 48.7774 68.0717 67.956 60.2577C73.48 58.0071 72.9981 51.9617 73 47C73.0038 37.19 77.5146 5.12996 58.1049 13.858z"/>
<path style="fill:#8d8d8c; stroke:none;" d="M68 13L69 14L68 13z"/>
<path style="fill:#5f5f5d; stroke:none;" d="M164 16L167 13L164 16z"/>
<path style="fill:#c6c5c4; stroke:none;" d="M168.109 14.0278C163.451 16.6498 164.002 22.4355 164 27C163.997 35.9876 159.89 70.1149 178.945 59.821C187.052 55.4417 186.301 25.71 182.991 18.044C180.751 12.8585 172.886 11.3387 168.109 14.0278z"/>
<path style="fill:#8d8d8c; stroke:none;" d="M179 13L180 14L179 13z"/>
<path style="fill:#5f5f5d; stroke:none;" d="M71 14L73 16L71 14z"/>
<path style="fill:#8d8d8c; stroke:none;" d="M166 14L167 15L166 14z"/>
<path style="fill:#5f5f5d; stroke:none;" d="M182 14L184 19L185 19L182 14M41 15L42 16L41 15z"/>
<path style="fill:#8d8d8c; stroke:none;" d="M165 15L166 16L165 15M54 16L55 17L54 16z"/>
<path style="fill:#5f5f5d; stroke:none;" d="M73.3333 16.6667L73.6667 17.3333L73.3333 16.6667M152 16L152 17L162 17L152 16M163.333 16.6667L163.667 17.3333L163.333 16.6667z"/>
<path style="fill:#8d8d8c; stroke:none;" d="M182 16L183 17L182 16z"/>
<path style="fill:#5f5f5d; stroke:none;" d="M195 16L196 17L195 16M52 17L43 18L43 19C45.5154 19.0085 53.5159 20.9335 52 17z"/>
<path style="fill:#8d8d8c; stroke:none;" d="M72 17L73 18L72 17M164 17L165 18L164 17z"/>
<path style="fill:#676766; stroke:none;" d="M183 17L184 18L183 17z"/>
<path style="fill:#8d8d8c; stroke:none;" d="M53 18L54 19L53 18z"/>
<path style="fill:#5f5f5d; stroke:none;" d="M74 18L72 61C77.3724 52.8598 77.7638 26.9695 74 18M162 18L156 21L156 22L162 22C162 33.0941 159.133 48.8863 164 59L165 59L162 18z"/>
<path style="fill:#8d8d8c; stroke:none;" d="M183 18L184 19L183 18M163 19L163 55L164 55C164 44.613 167.011 28.5596 163 19M73 20L73 54L74 54L73 20z"/>
<path style="fill:#5f5f5d; stroke:none;" d="M185 20L185 53L186 53L185 20M157 23L157 28L158 28L157 23M46 25L47 53L48 53C48 45.3998 50.836 31.0327 46 25M79 25L78 29L79 29L79 25M189 27L190 28L189 27M19 28L19 29L47 29L19 28M80 28L80 29L157 29L133 28L80 28M190 28L190 29L219 30C212.136 25.3108 198.133 28 190 28M16 29L16 30L19 30L16 29z"/>
<path style="fill:#8d8d8c; stroke:none;" d="M21 29L21 30L46 30L21 29z"/>
<path style="fill:#5f5f5d; stroke:none;" d="M79 29C79 37.0053 80.9831 47.8379 77 55L80 56L79 29z"/>
<path style="fill:#8d8d8c; stroke:none;" d="M80 55L81 55L81 30L156 30L156 55C157.741 50.8515 159.268 33.0937 155.397 30.0278C152.615 27.8249 146.328 29 143 29L109 29C102.777 29 86.5704 26.0938 81.6034 30.0278C77.3348 33.4086 80 49.8567 80 55z"/>
<path style="fill:#5f5f5d; stroke:none;" d="M157 29L157 56L158 56L157 29M188 29C188 39.1047 191.874 56.5787 184 64L184 65C194.231 59.9526 190 38.7953 190 29L188 29z"/>
<path style="fill:#8d8d8c; stroke:none;" d="M191 29L191 30L214 30L191 29z"/>
<path style="fill:#676766; stroke:none;" d="M214.667 29.3333L215.333 29.6667L214.667 29.3333z"/>
<path style="fill:#5f5f5d; stroke:none;" d="M14.6667 30.3333L15.3333 30.6667L14.6667 30.3333z"/>
<path style="fill:#8d8d8c; stroke:none;" d="M17.6667 30.3333L18.3333 30.6667L17.6667 30.3333z"/>
<path style="fill:#c6c5c4; stroke:none;" d="M191 30C191 38.6195 193.555 52.1738 189.543 59.9853C183.525 71.7028 165.296 70.0804 158.728 59.9961C153.605 52.1316 156 38.9583 156 30L81 30C81 38.736 83.1924 51.0743 78.8603 58.9992C72.2678 71.0595 53.8023 71.6241 47.4568 58.9992C43.5951 51.3161 46 38.4393 46 30C35.8446 30 17.3749 26.3285 10.7276 36.044C4.27865 45.4696 8 65.0391 8 76L8 177C8 188.112 3.80885 210.057 12.3935 218.606C22.1803 228.352 51.1743 223 64 223C112.501 223 161.555 225.163 210 222.961C234.954 221.826 227 185.364 227 168L227 70C227 59.9131 230.479 42.0338 222.775 34.2137C215.628 26.9577 200.322 30 191 30z"/>
<path style="fill:#8d8d8c; stroke:none;" d="M217 30L218 31L217 30z"/>
<path style="fill:#5f5f5d; stroke:none;" d="M219.667 30.3333L220.333 30.6667L219.667 30.3333M13 31L14 32L13 31z"/>
<path style="fill:#8d8d8c; stroke:none;" d="M15 31L16 32L15 31M219 31L220 32L219 31z"/>
<path style="fill:#5f5f5d; stroke:none;" d="M221 31L226 36L221 31M10 35L13 32L10 35z"/>
<path style="fill:#8d8d8c; stroke:none;" d="M221 32L222 33L221 32M12 33L13 34L12 33M222 33L223 34L222 33M11 34L12 35L11 34M223 34L224 35L223 34z"/>
<path style="fill:#5f5f5d; stroke:none;" d="M9 35L8 39L9 39L9 35z"/>
<path style="fill:#8d8d8c; stroke:none;" d="M224 35L225 36L224 35z"/>
<path style="fill:#5f5f5d; stroke:none;" d="M226.333 36.6667L226.667 37.3333L226.333 36.6667z"/>
<path style="fill:#8d8d8c; stroke:none;" d="M9 37L10 38L9 37M225 37L226 38L225 37z"/>
<path style="fill:#676766; stroke:none;" d="M226 38L227 39L226 38M8 39L9 40L8 39z"/>
<path style="fill:#8d8d8c; stroke:none;" d="M226.333 39.6667L226.667 40.3333L226.333 39.6667M8.33333 40.6667L8.66667 41.3333L8.33333 40.6667z"/>
<path style="fill:#5f5f5d; stroke:none;" d="M47 54L47 58L48 58L47 54M51 54L52 57L53 57L53 54L51 54z"/>
<path style="fill:#676766; stroke:none;" d="M73 54L74 55L73 54z"/>
<path style="fill:#8d8d8c; stroke:none;" d="M183.333 54.6667L183.667 55.3333L183.333 54.6667z"/>
<path style="fill:#5f5f5d; stroke:none;" d="M184 54L180 61C183.055 59.3985 184.934 57.5478 184 54M49 55L50 56L49 55z"/>
<path style="fill:#8d8d8c; stroke:none;" d="M53 55L54 56L53 55M46.3333 56.6667L46.6667 57.3333L46.3333 56.6667M72 56L73 57L72 56z"/>
<path style="fill:#5f5f5d; stroke:none;" d="M75 56L76 57L75 56M78 56L76 62L77 62L78 56M158 56L160 62L161 62L158 56M161 56L162 57L161 56z"/>
<path style="fill:#8d8d8c; stroke:none;" d="M164 56L165 57L164 56M190 56L190 59L191 59L190 56z"/>
<path style="fill:#5f5f5d; stroke:none;" d="M53 57L59 62L59 61L53 57z"/>
<path style="fill:#8d8d8c; stroke:none;" d="M54 57L55 58L54 57M79.3333 57.6667L79.6667 58.3333L79.3333 57.6667M157.333 57.6667L157.667 58.3333L157.333 57.6667M182 57L183 58L182 57z"/>
<path style="fill:#5f5f5d; stroke:none;" d="M185 57L186 58L185 57M48.3333 58.6667L48.6667 59.3333L48.3333 58.6667z"/>
<path style="fill:#8d8d8c; stroke:none;" d="M181 58L182 59L181 58z"/>
<path style="fill:#5f5f5d; stroke:none;" d="M187 58L188 59L187 58z"/>
<path style="fill:#8d8d8c; stroke:none;" d="M47 59L48 60L47 59M56 59L57 60L56 59z"/>
<path style="fill:#676766; stroke:none;" d="M78 59L79 60L78 59M158 59L159 60L158 59z"/>
<path style="fill:#5f5f5d; stroke:none;" d="M165 59L163 60L163 61L165 59z"/>
<path style="fill:#8d8d8c; stroke:none;" d="M180 59L181 60L180 59z"/>
<path style="fill:#5f5f5d; stroke:none;" d="M49 60C53.2999 68.9978 62.5413 68.069 71 67L71 66L60 67L49 60M53 60L54 61L53 60z"/>
<path style="fill:#8d8d8c; stroke:none;" d="M57 60L58 61L57 60M68 60L69 61L68 60z"/>
<path style="fill:#5f5f5d; stroke:none;" d="M68 62L71 60L68 62z"/>
<path style="fill:#8d8d8c; stroke:none;" d="M78 60L79 61L78 60M158 60L159 61L158 60z"/>
<path style="fill:#5f5f5d; stroke:none;" d="M166 60L166 61L170 62L170 61L166 60z"/>
<path style="fill:#8d8d8c; stroke:none;" d="M168.667 60.3333L169.333 60.6667L168.667 60.3333M178 60L179 61L178 60M189 60L190 61L189 60M48 61L49 62L48 61M60 61L60 62L66 62L60 61M159 61L160 62L159 61z"/>
<path style="fill:#5f5f5d; stroke:none;" d="M178.667 61.3333L179.333 61.6667L178.667 61.3333M182 61L183 62L182 61z"/>
<path style="fill:#8d8d8c; stroke:none;" d="M49 62L50 63L49 62z"/>
<path style="fill:#5f5f5d; stroke:none;" d="M59 62L59 63L68 63L59 62M75 62L74 64L76 64L75 62M161 62L163 64L161 62M171 62L171 63L176 63L171 62z"/>
<path style="fill:#8d8d8c; stroke:none;" d="M188 62L189 63L188 62M50 63L51 64L50 63M187 63L188 64L187 63M51 64L52 65L51 64z"/>
<path style="fill:#5f5f5d; stroke:none;" d="M73 64L71 65L71 66L73 64M163 64L166 66L163 64z"/>
<path style="fill:#8d8d8c; stroke:none;" d="M186 64L187 65L186 64M52 65L53 66L52 65M73 65L74 66L73 65M163 65L164 66L163 65z"/>
<path style="fill:#5f5f5d; stroke:none;" d="M167 66L167 67L182 67L167 66M182.667 65.3333L183.333 65.6667L182.667 65.3333z"/>
<path style="fill:#8d8d8c; stroke:none;" d="M54 66L55 67L54 66M165 66L166 67L165 66M183 66L184 67L183 66M56.6667 67.3333L57.3333 67.6667L56.6667 67.3333z"/>
<path style="fill:#676766; stroke:none;" d="M58 67L59 68L58 67M67.6667 67.3333L68.3333 67.6667L67.6667 67.3333z"/>
<path style="fill:#8d8d8c; stroke:none;" d="M69 67L70 68L69 67M167.667 67.3333L168.333 67.6667L167.667 67.3333z"/>
<path style="fill:#676766; stroke:none;" d="M169 67L169 68L172 68L169 67M175 67L175 68L179 68L175 67z"/>
<path style="fill:#8d8d8c; stroke:none;" d="M179.667 67.3333L180.333 67.6667L179.667 67.3333M61 68L61 69L65 69L61 68z"/>
<path style="fill:#676766; stroke:none;" d="M22 84L22 209L23 209L23 122C23 111.104 26.2077 94.0275 22 84z"/>
<path style="fill:#5f5f5d; stroke:none;" d="M23 84L23 209L213 209L213 208L202 199L209 207L26 207L33 199L24 207L24 86L213 86L213 85L86 85C66.1675 85 42.2984 88.5945 23 84z"/>
<path style="fill:#676766; stroke:none;" d="M24 84L24 85L213 85L195 84L157 84L24 84M24 86L24 207L33 199L26 207L209 207L202 199L213 208L213 86L24 86z"/>
<path style="fill:#5f5f5d; stroke:none;" d="M163 93L160 95L160 96L163 95L162 104L164 101L193 101C193 108.051 195.361 120.244 191 126L191 127C193.165 129.872 193.165 132.128 191 135L191 136C195.361 141.756 193 153.949 193 161C182.378 161 171.292 162.535 162 158L163 166L164 166L164 162C172.677 164.066 184.323 164.066 193 162L193 170C187.454 168.361 167.571 166.155 163.693 171.318C160.701 175.301 163 187.018 163 192L164 192C164 187.283 161.831 175.753 164.912 172.032C167.468 168.947 173.483 170 177 170C180.843 170 187.332 168.792 190.682 171.028C195.428 174.195 193.989 192.055 191 196L192 202L193 202L194 95L201 102L202 102C200.386 97.3631 197.637 95.3811 193 94L193 100C184.323 97.9341 172.677 97.9341 164 100L163 93M113 98L113 99L123 95L113 98M152 94L152 100C145.768 98.5163 128.527 96.2146 123.318 100.603C118.253 104.871 119.511 123.973 125 127L125 126C121.306 122.057 119.159 105.658 124.434 102.028C129.129 98.7964 147.692 99.7365 152 103L153 103L152 94M154 95L154 96L157 97L154 95M158 96L159 97L158 96M111 99L112 100L111 99M109 100L110 101L109 100M158 100L158 101L162 101L158 100M107 101L108 102L107 101z"/>
<path style="fill:#676766; stroke:none;" d="M123 101L124 102L123 101z"/>
<path style="fill:#c6c5c4; stroke:none;" d="M124.603 102.028C121.927 104.147 123 110.02 123 113C123 116.122 121.954 121.779 124.028 124.397C126.603 127.648 147.204 127.501 150.397 124.972C153.073 122.853 152 116.98 152 114C152 110.762 152.92 105.588 150.682 102.894C147.819 99.4465 128.042 99.3047 124.603 102.028z"/>
<path style="fill:#8d8d8c; stroke:none;" d="M150 101L152 103L150 101z"/>
<path style="fill:#676766; stroke:none;" d="M151 101L152 102L151 101z"/>
<path style="fill:#5f5f5d; stroke:none;" d="M154 101L154 102L157 102L154 101z"/>
<path style="fill:#676766; stroke:none;" d="M164 101L165 102L164 101z"/>
<path style="fill:#c6c5c4; stroke:none;" d="M165.603 102.028C162.927 104.147 164 110.02 164 113C164 116.122 162.954 121.779 165.028 124.397C167.603 127.648 188.204 127.501 191.397 124.972C194.073 122.853 193 116.98 193 114C193 110.762 193.92 105.588 191.682 102.894C188.819 99.4465 169.042 99.3047 165.603 102.028z"/>
<path style="fill:#8d8d8c; stroke:none;" d="M191 101L193 103L191 101z"/>
<path style="fill:#676766; stroke:none;" d="M192 101L193 102L192 101z"/>
<path style="fill:#5f5f5d; stroke:none;" d="M105 102L99 109L105 102z"/>
<path style="fill:#fefefe; stroke:none;" d="M150 102L151 103L150 102M165 102L166 103L165 102M191 102L192 103L191 102z"/>
<path style="fill:#676766; stroke:none;" d="M122 103L122 124L123 124L122 103z"/>
<path style="fill:#5f5f5d; stroke:none;" d="M163 105C163 111.094 160.217 123.731 166 127L166 126L163 105M97 109L110 124L111 124L97 109M69 111L68 136C72.3609 141.756 70 153.949 70 161C62.5952 161 50.0047 163.452 43.2284 160.397C36.9466 157.564 39.2616 139.99 43 136L43 135C34.37 139.759 40.0414 160.541 40 169L41 169L41 162C46.9028 163.405 64.6955 165.86 69.3966 161.258C72.2762 158.439 71 151.651 71 148C71 135.988 70 124.051 70 112C75.0122 114.763 77.8615 114.079 83 112L69 111M40 120L32.3904 137L33.733 166L33 198L34 198L35.2207 166L33.1049 140L40 120z"/>
<path style="fill:#676766; stroke:none;" d="M163 123L164 124L163 123z"/>
<path style="fill:#fefefe; stroke:none;" d="M150 124L151 125L150 124z"/>
<path style="fill:#5f5f5d; stroke:none;" d="M152 124L150 126L150 136L153 138L154 137L152 126L157 126L152 124z"/>
<path style="fill:#fefefe; stroke:none;" d="M165 124L166 125L165 124M191 124L192 125L191 124z"/>
<path style="fill:#8d8d8c; stroke:none;" d="M123 125L124 126L123 125z"/>
<path style="fill:#676766; stroke:none;" d="M151 125L152 126L151 125z"/>
<path style="fill:#8d8d8c; stroke:none;" d="M164 125L165 126L164 125z"/>
<path style="fill:#676766; stroke:none;" d="M192 125L193 126L192 125z"/>
<path style="fill:#5f5f5d; stroke:none;" d="M201 125L199 130L200 130L201 125M199 132L201 137L202 137L199 132M77 136L77 137L80 137C80 142.868 77.4346 157.011 82 161L81 166L82 166L82 162C88.4185 163.528 105.259 165.73 110.682 161.258C115.777 157.056 114.452 138.007 109 135L109 136C113.361 141.756 111 153.949 111 161C103.595 161 91.0047 163.452 84.2284 160.397C77.9466 157.564 80.2616 139.99 84 136L77 136M153 159L152 159C147.692 162.264 129.129 163.204 124.434 159.972C119.159 156.342 121.306 139.943 125 136C119.031 135.859 119.903 154.731 121.603 158.941C124.527 166.18 149.497 164.996 153 159M163 157L164 157C164 151.23 161.748 140.229 166 136C160.482 135.868 163 152.676 163 157z"/>
<path style="fill:#8d8d8c; stroke:none;" d="M41 136L42 137L41 136z"/>
<path style="fill:#c6c5c4; stroke:none;" d="M69 136C62.9253 136 47.4463 133.192 42.6034 137.028C40.082 139.025 41.0002 144.197 41 147C40.9998 150.328 39.825 156.615 42.0278 159.397C44.5595 162.593 65.2887 162.594 67.821 159.397C71.6751 154.53 68.5892 141.971 69 136z"/>
<path style="fill:#676766; stroke:none;" d="M69 136L70 137L69 136z"/>
<path style="fill:#8d8d8c; stroke:none;" d="M82 136L83 137L82 136z"/>
<path style="fill:#c6c5c4; stroke:none;" d="M110 136C104.402 136 87.4645 133.024 83 136C80.782 137.479 80.782 159.521 83 161C86.6058 163.404 109.657 161.417 111 159C114.113 153.396 109.395 138.419 110 136z"/>
<path style="fill:#676766; stroke:none;" d="M110 136L111 137L110 136z"/>
<path style="fill:#8d8d8c; stroke:none;" d="M123 136L124 137L123 136z"/>
<path style="fill:#c6c5c4; stroke:none;" d="M124.603 137.028C121.927 139.147 123 145.02 123 148C123 151.122 121.954 156.779 124.028 159.397C126.73 162.808 146.846 162.39 150.106 159.682C152.894 157.367 152 152.183 152 149C152 145.879 153.046 140.221 150.972 137.603C148.397 134.352 127.796 134.499 124.603 137.028z"/>
<path style="fill:#676766; stroke:none;" d="M151 136L152 137L151 136z"/>
<path style="fill:#8d8d8c; stroke:none;" d="M164 136L165 137L164 136z"/>
<path style="fill:#c6c5c4; stroke:none;" d="M165.603 137.028C162.927 139.147 164 145.02 164 148C164 151.122 162.954 156.779 165.028 159.397C167.73 162.808 187.846 162.39 191.106 159.682C193.894 157.367 193 152.183 193 149C193 145.879 194.046 140.221 191.972 137.603C189.397 134.352 168.796 134.499 165.603 137.028z"/>
<path style="fill:#676766; stroke:none;" d="M192 136L193 137L192 136z"/>
<path style="fill:#fefefe; stroke:none;" d="M68 137L69 138L68 137z"/>
<path style="fill:#8d8d8c; stroke:none;" d="M69 137L68 161L69 161C70.8603 154.706 71.5628 143.107 69 137z"/>
<path style="fill:#fefefe; stroke:none;" d="M109 137L110 138L109 137z"/>
<path style="fill:#8d8d8c; stroke:none;" d="M110 137L111 138L110 137z"/>
<path style="fill:#fefefe; stroke:none;" d="M150 137L151 138L150 137M165 137L166 138L165 137M191 137L192 138L191 137z"/>
<path style="fill:#676766; stroke:none;" d="M40 138L40 159L41 159L40 138M81 138L81 159L82 159L81 138M122 138L122 159L123 159L122 138M163 138L164 139L163 138z"/>
<path style="fill:#fefefe; stroke:none;" d="M42 159L43 160L42 159M68 159L69 160L68 159M83 159L84 160L83 159M109 159L110 160L109 159z"/>
<path style="fill:#8d8d8c; stroke:none;" d="M110 159L109 161L110 159z"/>
<path style="fill:#fefefe; stroke:none;" d="M150 159L151 160L150 159z"/>
<path style="fill:#8d8d8c; stroke:none;" d="M151 159L150 161L151 159z"/>
<path style="fill:#fefefe; stroke:none;" d="M165 159L166 160L165 159M191 159L192 160L191 159z"/>
<path style="fill:#8d8d8c; stroke:none;" d="M192 159L191 161L192 159M41 160L42 161L41 160z"/>
<path style="fill:#676766; stroke:none;" d="M69 160L70 161L69 160z"/>
<path style="fill:#8d8d8c; stroke:none;" d="M82 160L83 161L82 160z"/>
<path style="fill:#676766; stroke:none;" d="M110 160L111 161L110 160M123 160L124 161L123 160M151 160L152 161L151 160z"/>
<path style="fill:#5f5f5d; stroke:none;" d="M154 160L154 161L157 161L154 160z"/>
<path style="fill:#676766; stroke:none;" d="M164 160L165 161L164 160M192 160L193 161L192 160z"/>
<path style="fill:#5f5f5d; stroke:none;" d="M201 160L199 165L200 165L201 160M158 161L158 162L162 162L158 161M152 162L152 166L153 166L152 162M122 166C121.661 173.889 116.826 192.493 125 197L125 196C120.97 191.699 119.466 175.92 124.434 171.603C129.302 167.373 147.621 168.897 152 173L153 173C149.185 166.081 129.835 167.98 123 170L122 166M199 167L201 172L202 172L199 167M43 197L43 196C38.9703 191.699 37.466 175.92 42.4336 171.603C45.6453 168.812 52.0656 170 56 170C59.7473 170 66.4857 168.821 68.9722 172.434C71.096 175.519 70.0002 181.443 70 185C69.9997 189.001 70.4771 192.73 68 196L68 197L70 202L71 202L71 171L75 171C68.2468 168.219 47.6921 165.872 41.4336 170.179C35.9552 173.95 37.7321 194.095 43 197M81 202L82 202L84 197L84 196C79.9703 191.699 78.466 175.92 83.4336 171.603C86.6453 168.812 93.0656 170 97 170C100.747 170 107.486 168.821 109.972 172.434C112.218 175.697 111.008 182.227 111 186C110.992 190.051 110.585 193.26 109 197C114.489 193.973 115.747 174.871 110.682 170.603C106.914 167.428 98.6031 169 94 169C90.0189 169 82.6423 167.706 80.6034 172.228C76.8921 180.46 81.1276 193.289 81 202z"/>
<path style="fill:#676766; stroke:none;" d="M42 170L42 171L68 171L42 170M83 170L83 171L109 171L83 170M124 170L124 171L150 171L124 170z"/>
<path style="fill:#5f5f5d; stroke:none;" d="M154 170L154 171L158 171L154 170z"/>
<path style="fill:#676766; stroke:none;" d="M165 170L165 171L193 172C186.782 167.289 172.649 170 165 170z"/>
<path style="fill:#8d8d8c; stroke:none;" d="M41 171L42 172L41 171z"/>
<path style="fill:#c6c5c4; stroke:none;" d="M69 171C62.9253 171 47.4463 168.192 42.6034 172.028C40.082 174.025 41.0002 179.197 41 182C40.9998 185.328 39.8251 191.615 42.0278 194.397C44.5608 197.595 65.4392 197.595 67.9722 194.397C71.4742 189.975 69 176.51 69 171z"/>
<path style="fill:#676766; stroke:none;" d="M69 171L70 172L69 171z"/>
<path style="fill:#8d8d8c; stroke:none;" d="M82 171L83 172L82 171z"/>
<path style="fill:#c6c5c4; stroke:none;" d="M83.6034 172.028C80.9272 174.147 82 180.02 82 183C82 186.122 80.9543 191.779 83.0278 194.397C85.7254 197.803 105.208 197.291 108.682 194.972C112.464 192.448 112.523 176.015 109.821 172.603C107.247 169.353 86.7936 169.501 83.6034 172.028z"/>
<path style="fill:#676766; stroke:none;" d="M110 171L111 172L110 171z"/>
<path style="fill:#8d8d8c; stroke:none;" d="M123 171L124 172L123 171z"/>
<path style="fill:#c6c5c4; stroke:none;" d="M124.603 172.028C121.927 174.147 123 180.02 123 183C123 186.073 121.953 191.694 124.028 194.258C126.867 197.767 146.09 197.369 149.682 194.972C153.346 192.527 153.611 175.936 150.972 172.603C148.397 169.352 127.796 169.499 124.603 172.028z"/>
<path style="fill:#676766; stroke:none;" d="M151 171L152 172L151 171z"/>
<path style="fill:#8d8d8c; stroke:none;" d="M164 171L165 172L164 171z"/>
<path style="fill:#c6c5c4; stroke:none;" d="M164 195C171.03 194.749 183.777 199.2 190.667 195.5C194.194 193.606 194.765 175.313 192.5 172.167C190.62 169.555 166.38 169.555 164.5 172.167C161.546 176.269 164 189.918 164 195z"/>
<path style="fill:#8d8d8c; stroke:none;" d="M69 172L68 196L69 196C70.8603 189.706 71.5628 178.107 69 172M110 172L111 173L110 172z"/>
<path style="fill:#676766; stroke:none;" d="M40 173L40 194L41 194L40 173M81 173L81 194L82 194L81 173M122 173L122 194L123 194L122 173M163 173L164 174L163 173z"/>
<path style="fill:#5f5f5d; stroke:none;" d="M162 193L166 197L166 196L162 193z"/>
<path style="fill:#fefefe; stroke:none;" d="M42 194L43 195L42 194z"/>
<path style="fill:#8d8d8c; stroke:none;" d="M110 194L111 195L110 194M151 194L150 196L151 194z"/>
<path style="fill:#5f5f5d; stroke:none;" d="M152 194L150 196L150 197L157 196L152 194M158 194L159 195L158 194z"/>
<path style="fill:#fefefe; stroke:none;" d="M165 194L166 195L165 194M191 194L192 195L191 194z"/>
<path style="fill:#8d8d8c; stroke:none;" d="M192 194L191 196L192 194z"/>
<path style="fill:#676766; stroke:none;" d="M41 195L42 196L41 195M69 195L70 196L69 195z"/>
<path style="fill:#5f5f5d; stroke:none;" d="M72 195L72 196L75 196L72 195z"/>
<path style="fill:#676766; stroke:none;" d="M82 195L83 196L82 195z"/>
<path style="fill:#8d8d8c; stroke:none;" d="M109 195L110 196L109 195z"/>
<path style="fill:#676766; stroke:none;" d="M123 195L124 196L123 195z"/>
<path style="fill:#8d8d8c; stroke:none;" d="M124 195L125 196L124 195z"/>
<path style="fill:#676766; stroke:none;" d="M151 195L152 196L151 195M164 195L165 196L164 195z"/>
<path style="fill:#8d8d8c; stroke:none;" d="M165 195L166 196L165 195z"/>
<path style="fill:#676766; stroke:none;" d="M192 195L193 196L192 195z"/>
<path style="fill:#5f5f5d; stroke:none;" d="M201.333 195.667L201.667 196.333L201.333 195.667M152 197L152 202L153 202L152 197M42 203L42 204L69 204L42 203M83 203L83 204L110 204L83 203M124 203L124 204L151 204L124 203M165 203L165 204L192 204L165 203z"/>
<path style="fill:#8d8d8c; stroke:none;" d="M23 209L24 210L23 209M211 209L212 210L211 209M8.33333 211.667L8.66667 212.333L8.33333 211.667M226 212L227 213L226 212z"/>
<path style="fill:#676766; stroke:none;" d="M8 213L9 214L8 213M226 213L227 214L226 213z"/>
<path style="fill:#5f5f5d; stroke:none;" d="M8 214C9.60879 218.719 12.2812 221.391 17 223L17 222L8 214z"/>
<path style="fill:#8d8d8c; stroke:none;" d="M9 214L10 215L9 214z"/>
<path style="fill:#5f5f5d; stroke:none;" d="M226 214L218 222L218 223C220.738 222.424 223.531 219.485 224 223L225 223L226 214z"/>
<path style="fill:#676766; stroke:none;" d="M9 215L10 216L9 215z"/>
<path style="fill:#8d8d8c; stroke:none;" d="M225 215L226 216L225 215z"/>
<path style="fill:#676766; stroke:none;" d="M8 216L8 223L15 223L15 222L8 216z"/>
<path style="fill:#8d8d8c; stroke:none;" d="M10 216L11 217L10 216z"/>
<path style="fill:#676766; stroke:none;" d="M224 217L225 218L224 217M226 217L227 223L226 217M223 218L224 219L223 218M222 219L223 220L222 219z"/>
<path style="fill:#8d8d8c; stroke:none;" d="M14 220L15 221L14 220M220 220L221 221L220 220z"/>
<path style="fill:#676766; stroke:none;" d="M223 220L220 222L220 223C222.348 222.706 223.951 222.507 223 220M15 221L16 222L15 221z"/>
<path style="fill:#8d8d8c; stroke:none;" d="M16 221L17 222L16 221M218 221L219 222L218 221z"/>
<path style="fill:#676766; stroke:none;" d="M219 221L220 222L219 221M17 222L18 223L17 222z"/>
<path style="fill:#8d8d8c; stroke:none;" d="M18 222L18 223L21 223L18 222M214 222L214 223L217 223L214 222z"/>
<path style="fill:#676766; stroke:none;" d="M217 222L218 223L217 222z"/>
</svg>
