<?xml version="1.0" encoding="UTF-8" standalone="no"?>
<!-- Generator: Adobe Illustrator 19.0.0, SVG Export Plug-In . SVG Version: 6.00 Build 0)  -->

<svg
   xmlns:dc="http://purl.org/dc/elements/1.1/"
   xmlns:cc="http://creativecommons.org/ns#"
   xmlns:rdf="http://www.w3.org/1999/02/22-rdf-syntax-ns#"
   xmlns:svg="http://www.w3.org/2000/svg"
   xmlns="http://www.w3.org/2000/svg"
   xmlns:sodipodi="http://sodipodi.sourceforge.net/DTD/sodipodi-0.dtd"
   xmlns:inkscape="http://www.inkscape.org/namespaces/inkscape"
   version="1.1"
   id="Layer_1"
   x="0px"
   y="0px"
   viewBox="0 0 24.271181 34.271179"
   xml:space="preserve"
   sodipodi:docname="document.svg"
   width="24.271181"
   height="34.271179"
   inkscape:version="0.92.4 (5da689c313, 2019-01-14)"><metadata
   id="metadata49"><rdf:RDF><cc:Work
       rdf:about=""><dc:format>image/svg+xml</dc:format><dc:type
         rdf:resource="http://purl.org/dc/dcmitype/StillImage" /><dc:title></dc:title></cc:Work></rdf:RDF></metadata><defs
   id="defs47" /><sodipodi:namedview
   pagecolor="#ffffff"
   bordercolor="#666666"
   borderopacity="1"
   objecttolerance="10"
   gridtolerance="10"
   guidetolerance="10"
   inkscape:pageopacity="0"
   inkscape:pageshadow="2"
   inkscape:window-width="1366"
   inkscape:window-height="705"
   id="namedview45"
   showgrid="false"
   inkscape:zoom="3.6875"
   inkscape:cx="59.780485"
   inkscape:cy="19.549535"
   inkscape:window-x="-8"
   inkscape:window-y="-8"
   inkscape:window-maximized="1"
   inkscape:current-layer="Layer_1" />
<g
   id="g12"
   transform="matrix(0.04740465,0,0,-0.04740465,0,24.271181)"
   style="fill:#a8a8a8;fill-opacity:1">
	<g
   id="g10"
   style="fill:#a8a8a8;fill-opacity:1">
		<g
   id="g8"
   style="fill:#a8a8a8;fill-opacity:1">
			<path
   d="M 493.268,-210.94977 H 18.732 c -10.345,0 -18.732,8.387 -18.732,18.732 V 493.269 C 0,503.613 8.387,512 18.732,512 h 307.572 0.013 c 4.757,0 9.671,-1.906 13.248,-5.487 L 506.513,339.564 c 3.413,-3.41 5.487,-8.208 5.487,-13.245 v -518.53677 c 0,-10.345 -8.387,-18.732 -18.732,-18.732 z M 345.052,448.046 V 345.051 h 102.994 c -29.804,29.804 -73.191,73.191 -102.994,102.995 z M 474.537,307.587 H 326.32 c -10.345,0 -18.732,8.387 -18.732,18.732 V 474.537 H 37.463 V -173.48677 H 474.536 V 307.587 Z"
   id="path2"
   inkscape:connector-curvature="0"
   sodipodi:nodetypes="ssssscsccssscccccsscccccc"
   style="fill:#a8a8a8;fill-opacity:1" />
			
			<path
   d="m 118.026,256.579 h 275.949 c 10.345,0 18.732,-8.387 18.732,-18.732 0,-10.345 -8.387,-18.732 -18.732,-18.732 H 118.026 c -10.345,0 -18.732,8.387 -18.732,18.732 0,10.346 8.387,18.732 18.732,18.732 z"
   id="path6"
   inkscape:connector-curvature="0"
   style="fill:#a8a8a8;fill-opacity:1" />
		</g>
	</g>
</g>
<g
   id="g14"
   transform="translate(-9.9944343,-502.36626)">
</g>
<g
   id="g16"
   transform="translate(-9.9944343,-502.36626)">
</g>
<g
   id="g18"
   transform="translate(-9.9944343,-502.36626)">
</g>
<g
   id="g20"
   transform="translate(-9.9944343,-502.36626)">
</g>
<g
   id="g22"
   transform="translate(-9.9944343,-502.36626)">
</g>
<g
   id="g24"
   transform="translate(-9.9944343,-502.36626)">
</g>
<g
   id="g26"
   transform="translate(-9.9944343,-502.36626)">
</g>
<g
   id="g28"
   transform="translate(-9.9944343,-502.36626)">
</g>
<g
   id="g30"
   transform="translate(-9.9944343,-502.36626)">
</g>
<g
   id="g32"
   transform="translate(-9.9944343,-502.36626)">
</g>
<g
   id="g34"
   transform="translate(-9.9944343,-502.36626)">
</g>
<g
   id="g36"
   transform="translate(-9.9944343,-502.36626)">
</g>
<g
   id="g38"
   transform="translate(-9.9944343,-502.36626)">
</g>
<g
   id="g40"
   transform="translate(-9.9944343,-502.36626)">
</g>
<g
   id="g42"
   transform="translate(-9.9944343,-502.36626)">
</g>
<path
   style="fill:#a8a8a8;fill-opacity:1;stroke-width:0.04740465"
   d="M 5.5949817,23.741861 H 18.676248 c 0.490401,0 0.887984,0.39758 0.887984,0.88799 0,0.4904 -0.397583,0.88798 -0.887984,0.88798 H 5.5949817 c -0.490401,0 -0.887984,-0.39758 -0.887984,-0.88798 0,-0.49041 0.397583,-0.88799 0.887984,-0.88799 z"
   id="path4-9"
   inkscape:connector-curvature="0" /><path
   style="fill:#a8a8a8;fill-opacity:1;stroke-width:0.04740465"
   d="M 5.5949817,18.114741 H 18.676248 c 0.490401,0 0.887984,0.39758 0.887984,0.88799 0,0.4904 -0.397583,0.88798 -0.887984,0.88798 H 5.5949817 c -0.490401,0 -0.887984,-0.39758 -0.887984,-0.88798 0,-0.49041 0.397583,-0.88799 0.887984,-0.88799 z"
   id="path4-9-3"
   inkscape:connector-curvature="0" /></svg>