<?xml version="1.0" encoding="utf-8"?>
<!-- Generator: Adobe Illustrator 21.0.0, SVG Export Plug-In . SVG Version: 6.00 Build 0)  -->
<svg version="1.1" id="Layer_1" xmlns="http://www.w3.org/2000/svg" xmlns:xlink="http://www.w3.org/1999/xlink" x="0px" y="0px"
	 viewBox="0 0 512 512" style="enable-background:new 0 0 512 512;" xml:space="preserve">
<style type="text/css">
	.st0{fill:#E2E5E7;}
	.st1{fill:#B0B7BD;}
	.st2{fill:#CAD1D8;}
	.st3{fill:#1A8255;}
	.st4{fill:#FFFFFF;}
</style>
<path class="st0" d="M128,0c-17.6,0-32,14.4-32,32v448c0,17.6,14.4,32,32,32h320c17.6,0,32-14.4,32-32V128L352,0H128z"/>
<path class="st1" d="M384,128h96L352,0v96C352,113.6,366.4,128,384,128z"/>
<polygon class="st2" points="480,224 384,128 480,128 "/>
<path class="st3" d="M416,416c0,8.8-7.2,16-16,16H48c-8.8,0-16-7.2-16-16V256c0-8.8,7.2-16,16-16h352c8.8,0,16,7.2,16,16V416z"/>
<path class="st2" d="M400,432H96v16h304c8.8,0,16-7.2,16-16v-16C416,424.8,408.8,432,400,432z"/>
<g>
	<path class="st4" d="M99.1,385v-92.3H127l16.7,62.9l16.6-62.9h27.9V385h-17.3v-72.6L152.6,385h-17.9l-18.3-72.6V385H99.1z"/>
	<path class="st4" d="M206.7,385v-92.3h29.9c11.3,0,18.7,0.5,22.2,1.4c5.3,1.4,9.7,4.4,13.3,9c3.6,4.6,5.3,10.6,5.3,18
		c0,5.7-1,10.4-3.1,14.3c-2.1,3.9-4.7,6.9-7.8,9.1c-3.2,2.2-6.4,3.7-9.7,4.4c-4.4,0.9-10.9,1.3-19.3,1.3h-12.1V385H206.7z
		 M225.4,308.4v26.2h10.2c7.3,0,12.3-0.5,14.7-1.4c2.5-1,4.4-2.5,5.8-4.5s2.1-4.4,2.1-7.2c0-3.4-1-6.1-3-8.3c-2-2.2-4.5-3.5-7.5-4.1
		c-2.2-0.4-6.7-0.6-13.4-0.6H225.4z"/>
	<path class="st4" d="M323.5,385v-18.6h-37.8V351l40-58.6h14.9v58.5H352v15.5h-11.5V385H323.5z M323.5,350.9v-31.5l-21.2,31.5H323.5
		z"/>
</g>
</svg>
